<?xml version="1.0" encoding="UTF-8" standalone="no"?>
<svg
   width="1000"
   height="1000"
   viewBox="0 0 1000 1000"
   version="1.1"
   id="svg2"
   sodipodi:docname="dosbox_automation_splash.svg"
   inkscape:version="1.4 (e7c3feb100, 2024-10-09)"
   xmlns:inkscape="http://www.inkscape.org/namespaces/inkscape"
   xmlns:sodipodi="http://sodipodi.sourceforge.net/DTD/sodipodi-0.dtd"
   xmlns:xlink="http://www.w3.org/1999/xlink"
   xmlns="http://www.w3.org/2000/svg"
   xmlns:svg="http://www.w3.org/2000/svg">
  <sodipodi:namedview
     id="namedview2"
     pagecolor="#ffffff"
     bordercolor="#000000"
     borderopacity="0.25"
     inkscape:showpageshadow="2"
     inkscape:pageopacity="0.0"
     inkscape:pagecheckerboard="0"
     inkscape:deskcolor="#d1d1d1"
     inkscape:zoom="0.809"
     inkscape:cx="500"
     inkscape:cy="500"
     inkscape:window-width="1920"
     inkscape:window-height="1020"
     inkscape:window-x="0"
     inkscape:window-y="0"
     inkscape:window-maximized="1"
     inkscape:current-layer="svg2" />
  <defs
     id="defs1">
    <linearGradient
       id="linearGradient3"
       inkscape:collect="always">
      <stop
         style="stop-color:#080808;stop-opacity:1;"
         offset="0"
         id="stop3" />
      <stop
         style="stop-color:#1a1a1a;stop-opacity:1;"
         offset="1"
         id="stop4" />
    </linearGradient>
    <style
       id="style1">
      @font-face { font-family: 'Bebas Neue'; src: local('Bebas Neue'); }
      @font-face { font-family: 'Raleway'; src: local('Raleway'); }
    </style>
    <linearGradient
       inkscape:collect="always"
       xlink:href="#linearGradient3"
       id="linearGradient4"
       x1="502.4722"
       y1="2.4721704"
       x2="502.4722"
       y2="1002.4722"
       gradientUnits="userSpaceOnUse" />
  </defs>
  <!-- dark industrial background -->
  <rect
     width="1000"
     height="1000"
     fill="#1a1a1a"
     id="rect1"
     x="2.472188"
     y="2.472188"
     style="fill:url(#linearGradient4);fill-opacity:1" />
  <!-- cogwheel centered at 500,400, scaled to ~350px wide -->
  <g
     transform="matrix(6.5,0,0,6.5,339.69603,176.65524)"
     fill="#d8d8d8"
     id="g1">
    <!-- gear body: outer ring with teeth, center hole punched out by path winding -->
    <path
       fill-rule="evenodd"
       d="m 53.111,22.172 c -0.07,-0.411 -0.311,-0.773 -0.66,-1 -0.351,-0.228 -0.777,-0.298 -1.184,-0.197 -0.922,0.231 -1.879,0.179 -2.749,-0.156 -2.351,-0.903 -3.528,-3.553 -2.626,-5.904 0.341,-0.889 0.957,-1.642 1.782,-2.178 0.35,-0.227 0.589,-0.589 0.661,-1 0.07,-0.41 -0.031,-0.832 -0.283,-1.164 C 46.396,8.389 44.423,6.483 42.191,4.908 41.851,4.669 41.427,4.583 41.02,4.665 40.613,4.75 40.26,5 40.043,5.355 39.559,6.156 38.852,6.779 38,7.158 37.408,7.421 36.785,7.554 36.146,7.554 34.342,7.554 32.704,6.489 31.969,4.841 31.578,3.963 31.478,2.998 31.676,2.051 31.762,1.644 31.675,1.22 31.436,0.879 31.198,0.539 30.827,0.314 30.415,0.257 27.708,-0.12 24.94,-0.079 22.274,0.377 21.864,0.447 21.501,0.685 21.272,1.033 21.043,1.381 20.97,1.808 21.07,2.213 21.294,3.126 21.237,4.067 20.903,4.935 20.229,6.689 18.515,7.868 16.637,7.868 16.078,7.868 15.528,7.764 15,7.561 14.107,7.218 13.354,6.601 12.82,5.775 12.593,5.425 12.232,5.185 11.823,5.113 11.414,5.041 10.992,5.141 10.659,5.39 8.467,7.039 6.551,9.008 4.965,11.242 4.723,11.583 4.634,12.01 4.72,12.419 c 0.086,0.409 0.339,0.764 0.698,0.979 0.811,0.485 1.441,1.196 1.824,2.057 0.496,1.115 0.528,2.356 0.091,3.495 -0.438,1.139 -1.293,2.039 -2.409,2.535 -0.893,0.396 -1.885,0.491 -2.844,0.28 -0.408,-0.091 -0.836,-0.007 -1.18,0.23 -0.344,0.238 -0.572,0.608 -0.632,1.021 -0.388,2.74 -0.354,5.495 0.104,8.189 0.07,0.415 0.312,0.781 0.665,1.009 0.353,0.229 0.787,0.295 1.193,0.191 0.935,-0.245 1.905,-0.195 2.789,0.144 1.14,0.438 2.04,1.293 2.536,2.407 0.496,1.114 0.528,2.355 0.09,3.495 -0.351,0.912 -0.991,1.679 -1.854,2.217 -0.355,0.223 -0.604,0.584 -0.68,0.997 -0.078,0.414 0.022,0.84 0.275,1.177 1.661,2.211 3.645,4.141 5.893,5.729 0.345,0.244 0.777,0.333 1.188,0.24 0.412,-0.091 0.767,-0.35 0.978,-0.715 0.487,-0.843 1.212,-1.495 2.093,-1.888 0.59,-0.263 1.214,-0.396 1.854,-0.396 1.805,0 3.443,1.064 4.177,2.713 0.405,0.912 0.499,1.913 0.269,2.896 -0.096,0.41 -0.016,0.843 0.223,1.19 0.239,0.348 0.613,0.579 1.031,0.637 1.221,0.17 2.461,0.257 3.689,0.257 1.516,0 3.04,-0.132 4.529,-0.391 0.416,-0.072 0.78,-0.315 1.008,-0.671 0.228,-0.356 0.294,-0.789 0.185,-1.196 -0.256,-0.951 -0.209,-1.925 0.133,-2.816 0.675,-1.753 2.39,-2.932 4.268,-2.932 0.559,0 1.109,0.104 1.635,0.305 0.912,0.353 1.678,0.992 2.217,1.853 0.224,0.355 0.586,0.604 1,0.68 0.412,0.076 0.842,-0.024 1.178,-0.28 2.202,-1.668 4.12,-3.654 5.701,-5.904 0.24,-0.344 0.326,-0.771 0.238,-1.183 -0.09,-0.408 -0.348,-0.764 -0.709,-0.976 -0.832,-0.486 -1.477,-1.205 -1.865,-2.078 -1.022,-2.302 0.018,-5.008 2.316,-6.031 0.893,-0.396 1.885,-0.491 2.84,-0.279 0.41,0.089 0.84,0.005 1.184,-0.234 0.345,-0.239 0.572,-0.612 0.629,-1.028 0.365,-2.726 0.314,-5.475 -0.157,-8.172 z m -26.362,-3.92 c -3.357,0 -6.408,1.98 -7.771,5.047 -1.904,4.282 0.029,9.315 4.311,11.222 1.1,0.488 2.26,0.735 3.45,0.735 3.356,0 6.407,-1.98 7.771,-5.047 1.904,-4.283 -0.029,-9.316 -4.311,-11.222 -1.1,-0.488 -2.26,-0.735 -3.45,-0.735 z"
       id="path1" />
  </g>
  <!-- dosbox text -->
  <text
     x="508.65268"
     y="696.40302"
     text-anchor="middle"
     font-family="'Bebas Neue', sans-serif"
     font-size="120px"
     font-weight="400"
     fill="#d8d8d8"
     letter-spacing="12"
     id="text1"
     style="font-style:normal;font-variant:normal;font-weight:normal;font-stretch:normal;font-size:146.667px;font-family:'Bebas Neue', sans-serif;-inkscape-font-specification:'Bebas Neue, sans-serif, Normal';font-variant-ligatures:normal;font-variant-caps:normal;font-variant-numeric:normal;font-variant-east-asian:normal;letter-spacing:12;text-anchor:middle;fill:#d8d8d8">DOSBOX</text>
  <!-- automation text, same white -->
  <text
     x="502.47217"
     y="744.15332"
     text-anchor="middle"
     font-family="Raleway, sans-serif"
     font-size="52px"
     font-weight="300"
     fill="#d8d8d8"
     letter-spacing="8"
     id="text2"
     style="font-style:normal;font-variant:normal;font-weight:normal;font-stretch:normal;font-size:42.6667px;font-family:Raleway, sans-serif;-inkscape-font-specification:'Raleway, sans-serif, @wght=300';font-variant-ligatures:normal;font-variant-caps:normal;font-variant-numeric:normal;font-variant-east-asian:normal;font-variation-settings:'wght' 300;letter-spacing:8;text-anchor:middle;fill:#d8d8d8">automation</text>
</svg>
